<svg width="50" height="50" viewBox="0 0 50 50" fill="none" xmlns="http://www.w3.org/2000/svg">
    <rect width="50" height="50" fill="#2F80ED"/>
    <path d="M12.043 34.082C11.6055 34.0273 10.7624 34 9.51367 34H8.41992V15.7617C9.00326 15.7982 9.64583 15.8164 10.3477 15.8164C11.0495 15.8164 11.5462 15.7799 11.8379 15.707L16.4316 23.5137L20.8477 15.707C21.1393 15.7799 21.6953 15.8164 22.5156 15.8164C23.3359 15.8164 24.0378 15.7982 24.6211 15.7617V34H23.5273C22.2786 34 21.4355 34.0273 20.998 34.082V21.832L16.5273 29.8301L12.043 22.4746V34.082ZM33.2207 34C33.3392 33.6445 33.3984 32.8151 33.3984 31.5117V27.7109C31.8216 24.2383 30.8145 22.0736 30.377 21.2168C29.9395 20.3509 29.5703 19.6673 29.2695 19.166C28.3216 17.5618 27.7474 16.6413 27.5469 16.4043C27.3555 16.1673 27.1595 15.9714 26.959 15.8164H31.6758C31.776 15.9987 31.9128 16.2676 32.0859 16.623L35.3945 23.6094C35.5495 23.2266 35.7318 22.7982 35.9414 22.3242C37.9284 18.0495 38.9355 15.8802 38.9629 15.8164H43.4746C43.0098 16.1901 42.4401 16.974 41.7656 18.168C41.556 18.5234 41.3464 18.929 41.1367 19.3848L38.0469 25.8242C37.7005 26.599 37.4043 27.2962 37.1582 27.916V31.8398C37.1582 32.7513 37.2129 33.4714 37.3223 34H33.2207Z" fill="white"/>
</svg>
